<svg viewBox="0,0,500,175" width="500" height="175" xmlns="http://www.w3.org/2000/svg" xmlns:xlink="http://www.w3.org/1999/xlink"><g><rect x="0" y="65" height="60" width="40" fill="#b8b6db"/><text fill="pink" x="20" y="60" text-anchor="middle" style="font: 1em sans-serif;">2</text><text fill="#231f20" x="20" y="145" text-anchor="middle" style="font: 1em sans-serif;">8</text><text fill="#231f20" x="150" y="170" style="font: 1em sans-serif;">Age</text></g><g><rect x="50" y="95" height="30" width="40" fill="#e0dfef"/><text fill="pink" x="70" y="90" text-anchor="middle" style="font: 1em sans-serif;">1</text><text fill="#231f20" x="70" y="145" text-anchor="middle" style="font: 1em sans-serif;">9</text><text fill="#231f20" x="150" y="170" style="font: 1em sans-serif;">Age</text></g><g><rect x="100" y="35" height="90" width="40" fill="#8474b5"/><text fill="pink" x="120" y="30" text-anchor="middle" style="font: 1em sans-serif;">3</text><text fill="#231f20" x="120" y="145" text-anchor="middle" style="font: 1em sans-serif;">10</text><text fill="#231f20" x="150" y="170" style="font: 1em sans-serif;">Age</text></g><g><rect x="150" y="65" height="60" width="40" fill="#b8b6db"/><text fill="pink" x="170" y="60" text-anchor="middle" style="font: 1em sans-serif;">2</text><text fill="#231f20" x="170" y="145" text-anchor="middle" style="font: 1em sans-serif;">11</text><text fill="#231f20" x="150" y="170" style="font: 1em sans-serif;">Age</text></g><g><rect x="200" y="95" height="30" width="40" fill="#e0dfef"/><text fill="pink" x="220" y="90" text-anchor="middle" style="font: 1em sans-serif;">1</text><text fill="#231f20" x="220" y="145" text-anchor="middle" style="font: 1em sans-serif;">12</text><text fill="#231f20" x="150" y="170" style="font: 1em sans-serif;">Age</text></g><g><rect x="250" y="95" height="30" width="40" fill="#e0dfef"/><text fill="pink" x="270" y="90" text-anchor="middle" style="font: 1em sans-serif;">1</text><text fill="#231f20" x="270" y="145" text-anchor="middle" style="font: 1em sans-serif;">13</text><text fill="#231f20" x="150" y="170" style="font: 1em sans-serif;">Age</text></g><g><rect x="300" y="95" height="30" width="40" fill="#e0dfef"/><text fill="pink" x="320" y="90" text-anchor="middle" style="font: 1em sans-serif;">1</text><text fill="#231f20" x="320" y="145" text-anchor="middle" style="font: 1em sans-serif;">14</text><text fill="#231f20" x="150" y="170" style="font: 1em sans-serif;">Age</text></g></svg>